# xmcd CD database file
#
# Track frame offsets:
#	150
#	16590
#	26787
#	36722
#	51330
#	65717
#	78572
#	91522
#
# Disc length: 1354 seconds
#
# Revision: 0
# Processed by: cddbd v1.4PL0 Copyright (c) Steve Scherf et al.
# Submitted via: CDex 1.40Release
#
DISCID=63054808
DTITLE=The Kendalls - Just Liuke Real People
DYEAR=1988
DGENRE=Country
TTITLE0=Just Like Real People
TTITLE1=I Had A Lovely Time
TTITLE2=You'd Make An Angel Want To Cheat
TTITLE3=I'm Coming Down Lonely
TTITLE4=Leavin' On A Jet Plane
TTITLE5=Bobby
TTITLE6=You Still Think I Care
TTITLE7=Proud Mary
EXTD=YEAR: 1988 ID3G: 2
EXTT0=
EXTT1=
EXTT2=
EXTT3=
EXTT4=
EXTT5=
EXTT6=
EXTT7=
PLAYORDER=
